<svg width="109" height="108" viewBox="0 0 109 108" fill="none" xmlns="http://www.w3.org/2000/svg">
<g clip-path="url(#clip0_569_27802)">
<path d="M1.29112 40.9482L105.594 40.2295L108.5 108L0.5 107.042L1.29112 40.9482Z" fill="#3366FF"/>
<path d="M1.29108 40.9482L54.2415 0L105.594 40.2296" fill="#3366FF"/>
<g opacity="0.3">
<path opacity="0.3" d="M1.29108 40.9482L54.2415 0L105.594 40.2296" fill="black"/>
</g>
<path d="M0.499801 107.042C0.366641 106.93 8.71651 98.2159 19.1499 87.5783C29.5833 76.9408 38.1369 68.4217 38.27 68.5415C38.4032 68.6613 30.0533 77.3675 19.6199 88.005C9.18648 98.6426 0.63296 107.162 0.499801 107.042Z" fill="white"/>
<path d="M108.5 108C108.367 108.112 100.236 99.5783 90.3433 88.9333C80.4503 78.2882 72.5313 69.5671 72.6644 69.4697C72.7976 69.3724 80.9281 77.8915 90.8211 88.5365C100.714 99.1815 108.633 107.888 108.5 108Z" fill="white"/>
<g opacity="0.5">
<path opacity="0.5" d="M105.594 40.2295L53.2154 80.2196L1.29108 40.9482" fill="black"/>
</g>
<path d="M6.54698 44.6538L6.39032 15.6606L97.7454 13.5196L98.7402 45.2452L53.2154 79.6956L6.54698 44.6538Z" fill="#F3F3F3"/>
<path d="M54.4922 69.2751C41.9517 69.305 31.7533 59.6107 31.7219 47.6257C31.7219 46.7873 31.7689 45.9488 31.8707 45.1104C33.2807 33.1928 44.5365 24.6213 57.0144 25.9688C69.4843 27.3163 78.453 38.0736 77.0352 49.9987C75.735 60.9657 66.0378 69.2601 54.4922 69.2751ZM54.4295 26.6051C42.3198 26.6201 32.5052 36.015 32.5209 47.5883C32.5365 59.1616 42.3668 68.5415 54.4765 68.5265C65.6227 68.5115 74.983 60.5165 76.2441 49.9389C77.6149 38.4404 68.9752 28.0499 56.9439 26.7324C56.936 26.7324 56.9282 26.7324 56.9125 26.7324C56.0901 26.6276 55.2598 26.5752 54.4295 26.5602V26.6051Z" fill="#3366FF"/>
<path d="M38.9987 50.5677L42.7977 46.121L51.6802 52.252L66.1162 35.9925L70.4713 39.6531L51.8995 60.1048L38.9987 50.5677Z" fill="#3366FF"/>
</g>
<defs>
<clipPath id="clip0_569_27802">
<rect width="108" height="108" fill="white" transform="translate(0.5)"/>
</clipPath>
</defs>
</svg>
