<svg width="89" height="64" viewBox="0 0 89 64" fill="none" xmlns="http://www.w3.org/2000/svg">
<path fill-rule="evenodd" clip-rule="evenodd" d="M82 0.75C80.25 0.75 78.6875 1.4375 77.5625 2.5625L32 48.1875L11.4375 27.5625C10.3125 26.4375 8.75 25.75 7 25.75C3.5625 25.75 0.75 28.5625 0.75 32C0.75 33.75 1.4375 35.3125 2.5625 36.4375L27.5625 61.4375C28.6875 62.5625 30.25 63.25 32 63.25C33.75 63.25 35.3125 62.5625 36.4375 61.4375L86.4375 11.4375C87.5625 10.3125 88.25 8.75 88.25 7C88.25 3.5625 85.4375 0.75 82 0.75Z" fill="#3366FF"/>
</svg>
