<svg width="14" height="16" viewBox="0 0 14 16" fill="none" xmlns="http://www.w3.org/2000/svg">
<path fill-rule="evenodd" clip-rule="evenodd" d="M7 2.08333C6.31486 2.08333 5.65778 2.3555 5.17331 2.83997C4.68884 3.32444 4.41667 3.98152 4.41667 4.66667V6.58333H9.58333V4.66667C9.58333 3.98152 9.31116 3.32444 8.82669 2.83997C8.34222 2.3555 7.68514 2.08333 7 2.08333ZM11.0833 6.58333V4.66667C11.0833 3.5837 10.6531 2.54509 9.88735 1.77931C9.12158 1.01354 8.08297 0.583332 7 0.583332C5.91703 0.583332 4.87842 1.01354 4.11265 1.77931C3.34687 2.54509 2.91667 3.5837 2.91667 4.66667V6.58333H2.33333C1.18274 6.58333 0.25 7.51607 0.25 8.66667V13.3333C0.25 14.4839 1.18274 15.4167 2.33333 15.4167H11.6667C12.8173 15.4167 13.75 14.4839 13.75 13.3333V8.66667C13.75 7.51607 12.8173 6.58333 11.6667 6.58333H11.0833ZM2.33333 8.08333C2.01117 8.08333 1.75 8.3445 1.75 8.66667V13.3333C1.75 13.6555 2.01117 13.9167 2.33333 13.9167H11.6667C11.9888 13.9167 12.25 13.6555 12.25 13.3333V8.66667C12.25 8.3445 11.9888 8.08333 11.6667 8.08333H2.33333Z" fill="#0D2159"/>
</svg>
